<?xml version="1.0" encoding="UTF-8"?>
<svg viewBox="0 0 40 40" version="1.1" xmlns="http://www.w3.org/2000/svg" xmlns:xlink="http://www.w3.org/1999/xlink">
    <g stroke="none" stroke-width="1" fill="none" fill-rule="evenodd">
        <g id="icon">
            <circle id="Oval" fill="#7B8691" fill-rule="nonzero" cx="20" cy="20" r="20"></circle>
            <path d="M17.1284069,9.3085587 C16.2222894,7.8728697 23.8615304,6.68047411 24.3687498,11.0743702 C24.5681989,12.398299 24.5681989,13.7454395 24.3687498,15.0693683 C24.3687498,15.0693683 25.5104235,14.9386948 24.7487346,17.1085625 C24.7487346,17.1085625 24.3292039,18.6697668 23.6844334,18.3190116 C23.6844334,18.3190116 23.7893161,20.2928691 22.7748772,20.6272901 C22.7748772,20.6272901 22.8470914,21.6786958 22.8470914,21.7500504 L23.6947497,21.8764255 C23.6947497,21.8764255 23.6689589,22.7533134 23.8383186,22.8478797 C24.6120433,23.3465022 25.4597016,23.7256273 26.3512042,23.9697804 C28.9835873,24.6377626 30.3195518,25.7837347 30.3195518,26.7878574 L31.02708,30.3891156 C27.9803244,31.6657612 24.4444029,32.4291695 20.6634687,32.509121 L19.342119,32.509121 C15.5689219,32.4291695 12.0407377,31.6692 9,30.3977125 C9.13841074,29.4013271 9.31894648,28.2742683 9.50550008,27.5478269 C9.90611749,25.9866225 12.1593755,24.8268953 14.2320978,23.9353926 C15.3049959,23.4737369 15.5371133,23.1960558 16.6168889,22.7240838 C16.6770675,22.436946 16.701139,22.1429306 16.6891032,21.8497749 L17.6072564,21.7405938 C17.6072564,21.7405938 17.7276136,21.9598158 17.5341825,20.6702748 C17.5341825,20.6702748 16.5025496,20.4029099 16.4544068,18.3491009 C16.4544068,18.3491009 15.6789628,18.6070091 15.6325393,17.3630319 C15.5990112,16.5205318 14.9379065,15.7880725 15.8895878,15.1819882 L15.4047204,13.8907278 C15.4047204,13.8907278 14.8957815,8.90450252 17.1284069,9.3085587 L17.1284069,9.3085587 Z" id="Path" fill="#FFFFFF"></path>
        </g>
    </g>
</svg>